<?xml version="1.0" encoding="UTF-8" standalone="no"?>
<!-- Created with Inkscape (http://www.inkscape.org/) -->

<svg
   xmlns:dc="http://purl.org/dc/elements/1.1/"
   xmlns:cc="http://creativecommons.org/ns#"
   xmlns:rdf="http://www.w3.org/1999/02/22-rdf-syntax-ns#"
   xmlns:svg="http://www.w3.org/2000/svg"
   xmlns="http://www.w3.org/2000/svg"
   xmlns:sodipodi="http://sodipodi.sourceforge.net/DTD/sodipodi-0.dtd"
   xmlns:inkscape="http://www.inkscape.org/namespaces/inkscape"
   width="80.153397mm"
   height="40.076191mm"
   viewBox="0 0 80.153397 40.076191"
   version="1.1"
   id="svg4026"
   inkscape:version="0.92.3 (2405546, 2018-03-11)"
   sodipodi:docname="input_panel_slider_mount.svg">
  <defs
     id="defs4020" />
  <sodipodi:namedview
     id="base"
     pagecolor="#ffffff"
     bordercolor="#666666"
     borderopacity="1.0"
     inkscape:pageopacity="0.0"
     inkscape:pageshadow="2"
     inkscape:zoom="2.8"
     inkscape:cx="132.73506"
     inkscape:cy="104.19827"
     inkscape:document-units="mm"
     inkscape:current-layer="layer1"
     showgrid="false"
     fit-margin-top="0"
     fit-margin-left="0"
     fit-margin-right="0"
     fit-margin-bottom="0"
     inkscape:window-width="1718"
     inkscape:window-height="1368"
     inkscape:window-x="3633"
     inkscape:window-y="0"
     inkscape:window-maximized="0" />
  <metadata
     id="metadata4023">
    <rdf:RDF>
      <cc:Work
         rdf:about="">
        <dc:format>image/svg+xml</dc:format>
        <dc:type
           rdf:resource="http://purl.org/dc/dcmitype/StillImage" />
        <dc:title></dc:title>
      </cc:Work>
    </rdf:RDF>
  </metadata>
  <g
     inkscape:label="Layer 1"
     inkscape:groupmode="layer"
     id="layer1"
     transform="translate(-0.5557393,-256.17321)">
    <g
       id="g879"
       transform="matrix(0.35277777,0,0,-0.35277777,-6.4897517,547.86443)">
      <g
         id="g881"
         transform="translate(-12.321429,-5.357143)">
        <path
           d="m 32.4009,763.8508 h 1.6355 v -2.8338 h 2.2678 v 2.8338 h 3.4024 v -2.8338 h 2.2677 v 2.8338 h 3.4024 v -2.8338 h 2.2677 v 2.8338 h 3.4025 v -2.8338 h 2.2677 v 2.8338 h 3.4024 v -2.8338 h 2.2677 v 2.8338 h 3.4024 v -2.8338 h 2.2678 v 2.8338 h 3.4024 v -2.8338 h 2.2677 v 2.8338 h 3.4024 v -2.8338 h 2.2677 v 2.8338 h 3.4025 v -2.8338 h 2.2677 v 2.8338 h 3.4024 v -2.8338 h 2.2677 v 2.8338 h 3.4025 v -2.8338 h 2.2677 v 2.8338 h 3.4024 v -2.8338 h 2.2677 v 2.8338 h 3.4024 v -2.8338 h 2.2678 v 2.8338 h 3.4024 v -2.8338 h 2.2677 v 2.8338 h 3.4024 v -2.8338 h 2.2677 v 2.8338 h 3.4025 v -2.8338 h 2.2677 v 2.8338 h 3.4024 v -2.8338 h 2.2677 v 2.8338 h 3.4025 v -2.8338 h 2.2677 v 2.8338 h 3.4024 v -2.8338 h 2.2677 v 2.8338 h 3.4024 v -2.8338 h 2.2678 v 2.8338 h 1.7498 v 28.3465 h -113.3858 z"
           style="fill:none;stroke:#00ffff;stroke-width:0.21600001;stroke-linecap:butt;stroke-linejoin:miter;stroke-miterlimit:2.61312604;stroke-dasharray:none;stroke-opacity:1"
           id="path883"
           inkscape:connector-curvature="0" />
        <path
           d="m 46.5749,782.276 c 2.3485,0 4.252,-1.9034 4.252,-4.2519 0,-2.3485 -1.9035,-4.252 -4.252,-4.252 -2.3485,0 -4.2519,1.9035 -4.2519,4.252 0,2.3485 1.9034,4.2519 4.2519,4.2519 z"
           style="fill:none;stroke:#0000ff;stroke-width:0.21600001;stroke-linecap:butt;stroke-linejoin:miter;stroke-miterlimit:2.61312604;stroke-dasharray:none;stroke-opacity:1"
           id="path885"
           inkscape:connector-curvature="0" />
        <path
           d="m 131.6143,782.276 c 2.3485,0 4.252,-1.9034 4.252,-4.2519 0,-2.3485 -1.9035,-4.252 -4.252,-4.252 -2.3485,0 -4.252,1.9035 -4.252,4.252 0,2.3485 1.9035,4.2519 4.252,4.2519 z"
           style="fill:none;stroke:#0000ff;stroke-width:0.21600001;stroke-linecap:butt;stroke-linejoin:miter;stroke-miterlimit:2.61312604;stroke-dasharray:none;stroke-opacity:1"
           id="path887"
           inkscape:connector-curvature="0" />
      </g>
      <g
         id="g889">
        <path
           d="m 133.46527,786.84016 v 28.3464 h -1.6356 v 2.8338 h -2.2677 v -2.8338 h -3.4025 v 2.8338 h -2.2677 v -2.8338 h -3.4024 v 2.8338 h -2.2677 v -2.8338 h -3.4024 v 2.8338 h -2.2678 v -2.8338 h -3.4024 v 2.8338 h -2.2677 v -2.8338 h -3.4024 v 2.8338 h -2.2677 v -2.8338 h -3.402499 v 2.8338 h -2.2677 v -2.8338 h -3.4024 v 2.8338 h -2.2677 v -2.8338 h -3.4024 v 2.8338 h -2.2678 v -2.8338 h -3.4024 v 2.8338 h -2.2677 v -2.8338 h -3.4024 v 2.8338 h -2.2677 v -2.8338 h -3.4025 v 2.8338 h -2.2677 v -2.8338 h -3.4024 v 2.8338 h -2.2677 v -2.8338 h -3.4025 v 2.8338 h -2.2677 v -2.8338 h -3.4024 v 2.8338 h -2.2677 v -2.8338 h -3.4024 v 2.8338 h -2.2678 v -2.8338 h -3.4024 v 2.8338 h -2.2677 v -2.8338 h -3.4024 v 2.8338 h -2.2677 v -2.8338 h -3.4025 v 2.8338 h -2.2677 v -2.8338 h -3.4024 v 2.8338 h -2.2677 v -2.8338 h -1.7498 v -28.3464"
           style="fill:none;stroke:#00ffff;stroke-width:0.21600001;stroke-linecap:butt;stroke-linejoin:miter;stroke-miterlimit:2.61312604;stroke-dasharray:none;stroke-opacity:1"
           id="path891"
           inkscape:connector-curvature="0" />
        <path
           d="m 119.29117,796.76146 c -2.3485,0 -4.252,1.9034 -4.252,4.2519 0,2.3485 1.9035,4.252 4.252,4.252 2.3485,0 4.252,-1.9035 4.252,-4.252 0,-2.3485 -1.9035,-4.2519 -4.252,-4.2519 z"
           style="fill:none;stroke:#0000ff;stroke-width:0.21600001;stroke-linecap:butt;stroke-linejoin:miter;stroke-miterlimit:2.61312604;stroke-dasharray:none;stroke-opacity:1"
           id="path897"
           inkscape:connector-curvature="0" />
        <path
           d="m 34.251771,796.76146 c -2.3485,0 -4.2519,1.9034 -4.2519,4.2519 0,2.3485 1.9034,4.252 4.2519,4.252 2.3485,0 4.252,-1.9035 4.252,-4.252 0,-2.3485 -1.9035,-4.2519 -4.252,-4.2519 z"
           style="fill:none;stroke:#0000ff;stroke-width:0.21600001;stroke-linecap:butt;stroke-linejoin:miter;stroke-miterlimit:2.61312604;stroke-dasharray:none;stroke-opacity:1"
           id="path899"
           inkscape:connector-curvature="0" />
      </g>
    </g>
    <g
       id="g901"
       transform="matrix(0.35277777,0,0,-0.35277777,-16.128148,549.75431)">
      <path
         d="m 162.9958,832.0904 h 111.3956 v -113.3858 h -111.3956 z"
         style="fill:none;stroke:#00ffff;stroke-width:0.21600001;stroke-linecap:butt;stroke-linejoin:miter;stroke-miterlimit:2.61312604;stroke-dasharray:none;stroke-opacity:1"
         id="path903"
         inkscape:connector-curvature="0" />
      <path
         d="m 203.5242,747.0499 c 0,2.3485 1.9034,4.252 4.2519,4.252 2.3485,0 4.252,-1.9035 4.252,-4.252 0,-2.3485 -1.9035,-4.252 -4.252,-4.252 -2.3485,0 -4.2519,1.9035 -4.2519,4.252 z"
         style="fill:none;stroke:#0000ff;stroke-width:0.21600001;stroke-linecap:butt;stroke-linejoin:miter;stroke-miterlimit:2.61312604;stroke-dasharray:none;stroke-opacity:1"
         id="path905"
         inkscape:connector-curvature="0" />
      <path
         d="m 203.5242,803.7428 c 0,2.3485 1.9034,4.252 4.2519,4.252 2.3485,0 4.252,-1.9035 4.252,-4.252 0,-2.3485 -1.9035,-4.252 -4.252,-4.252 -2.3485,0 -4.2519,1.9035 -4.2519,4.252 z"
         style="fill:none;stroke:#0000ff;stroke-width:0.21600001;stroke-linecap:butt;stroke-linejoin:miter;stroke-miterlimit:2.61312604;stroke-dasharray:none;stroke-opacity:1"
         id="path907"
         inkscape:connector-curvature="0" />
      <path
         d="m 260.3693,747.0499 c 0,2.3485 1.9035,4.252 4.252,4.252 2.3485,0 4.2519,-1.9035 4.2519,-4.252 0,-2.3485 -1.9034,-4.252 -4.2519,-4.252 -2.3485,0 -4.252,1.9035 -4.252,4.252 z"
         style="fill:none;stroke:#0000ff;stroke-width:0.21600001;stroke-linecap:butt;stroke-linejoin:miter;stroke-miterlimit:2.61312604;stroke-dasharray:none;stroke-opacity:1"
         id="path909"
         inkscape:connector-curvature="0" />
      <path
         d="m 260.3693,803.7428 c 0,2.3485 1.9035,4.252 4.252,4.252 2.3485,0 4.2519,-1.9035 4.2519,-4.252 0,-2.3485 -1.9034,-4.252 -4.2519,-4.252 -2.3485,0 -4.252,1.9035 -4.252,4.252 z"
         style="fill:none;stroke:#0000ff;stroke-width:0.21600001;stroke-linecap:butt;stroke-linejoin:miter;stroke-miterlimit:2.61312604;stroke-dasharray:none;stroke-opacity:1"
         id="path911"
         inkscape:connector-curvature="0" />
      <path
         d="m 180.1522,737.1303 h 0.0363 v 3e-4 c 2.3485,0 4.252,-1.9035 4.252,-4.252 0,-2.3485 -1.9035,-4.2519 -4.252,-4.2519 v 3e-4 h -0.0363 -4.1791 -0.0363 v -3e-4 c -2.3485,0 -4.2519,1.9034 -4.2519,4.2519 0,2.3485 1.9034,4.252 4.2519,4.252 v -3e-4 h 0.0363 z"
         style="fill:none;stroke:#0000ff;stroke-width:0.21600001;stroke-linecap:butt;stroke-linejoin:miter;stroke-miterlimit:2.61312604;stroke-dasharray:none;stroke-opacity:1"
         id="path913"
         inkscape:connector-curvature="0" />
      <path
         d="m 180.1522,822.1697 h 0.0363 v 3e-4 c 2.3485,0 4.252,-1.9035 4.252,-4.252 0,-2.3485 -1.9035,-4.252 -4.252,-4.252 v 3e-4 h -0.0363 -4.1791 -0.0363 v -3e-4 c -2.3485,0 -4.2519,1.9035 -4.2519,4.252 0,2.3485 1.9034,4.252 4.2519,4.252 v -3e-4 h 0.0363 z"
         style="fill:none;stroke:#0000ff;stroke-width:0.21600001;stroke-linecap:butt;stroke-linejoin:miter;stroke-miterlimit:2.61312604;stroke-dasharray:none;stroke-opacity:1"
         id="path915"
         inkscape:connector-curvature="0" />
    </g>
  </g>
</svg>
