<?xml version="1.0" encoding="UTF-8" standalone="no"?>
<svg
   xmlns:dc="http://purl.org/dc/elements/1.1/"
   xmlns:cc="http://creativecommons.org/ns#"
   xmlns:rdf="http://www.w3.org/1999/02/22-rdf-syntax-ns#"
   xmlns:svg="http://www.w3.org/2000/svg"
   xmlns="http://www.w3.org/2000/svg"
   xmlns:sodipodi="http://sodipodi.sourceforge.net/DTD/sodipodi-0.dtd"
   xmlns:inkscape="http://www.inkscape.org/namespaces/inkscape"
   width="527.79315"
   height="1013.3707"
   version="1.1"
   id="svg879"
   sodipodi:docname="input_panel_example.svg"
   inkscape:version="0.92.3 (2405546, 2018-03-11)">
  <metadata
     id="metadata883">
    <rdf:RDF>
      <cc:Work
         rdf:about="">
        <dc:format>image/svg+xml</dc:format>
        <dc:type
           rdf:resource="http://purl.org/dc/dcmitype/StillImage" />
        <dc:title />
      </cc:Work>
    </rdf:RDF>
  </metadata>
  <sodipodi:namedview
     pagecolor="#ffffff"
     bordercolor="#666666"
     borderopacity="1"
     objecttolerance="10"
     gridtolerance="10"
     guidetolerance="10"
     inkscape:pageopacity="0"
     inkscape:pageshadow="2"
     inkscape:window-width="1920"
     inkscape:window-height="1017"
     id="namedview881"
     showgrid="false"
     fit-margin-top="0"
     fit-margin-left="0"
     fit-margin-right="0"
     fit-margin-bottom="0"
     inkscape:zoom="1.5055283"
     inkscape:cx="264.69962"
     inkscape:cy="-102.4246"
     inkscape:window-x="-8"
     inkscape:window-y="-8"
     inkscape:window-maximized="1"
     inkscape:current-layer="g877" />
  <desc
     id="desc815">C:\Users\bvandeurzen\Desktop\x-fest_box.dxf - scale = 1.000000, origin = (0.000000, 0.000000), method = manual</desc>
  <defs
     id="defs829">
    <marker
       id="DistanceX"
       orient="auto"
       refX="0"
       refY="0"
       style="overflow:visible">
      <path
         d="M 3,-3 -3,3 M 0,-5 V 5"
         style="stroke:#000000;stroke-width:0.5"
         id="path817"
         inkscape:connector-curvature="0" />
    </marker>
    <pattern
       height="8"
       id="Hatch"
       patternUnits="userSpaceOnUse"
       width="8"
       x="0"
       y="0">
      <path
         d="M8 4 l-4,4"
         linecap="square"
         stroke="#000000"
         stroke-width="0.25"
         id="path820" />
      <path
         d="M6 2 l-4,4"
         linecap="square"
         stroke="#000000"
         stroke-width="0.25"
         id="path822" />
      <path
         d="M4 0 l-4,4"
         linecap="square"
         stroke="#000000"
         stroke-width="0.25"
         id="path824" />
    </pattern>
    <symbol
       id="*MODEL_SPACE" />
    <symbol
       id="*PAPER_SPACE" />
  </defs>
  <g
     inkscape:groupmode="layer"
     inkscape:label="0"
     id="g877"
     transform="translate(204.13229,-828.3874)">
    <path
       d="m 177.6378,1371.0236 a 7.559055,7.559055 0 1 0 -15.11811,0 7.559055,7.559055 0 1 0 15.11811,0 z"
       style="fill:none;stroke:#0000ff;stroke-width:0.07559055;stroke-miterlimit:4;stroke-dasharray:none;stroke-opacity:1"
       id="path847"
       inkscape:connector-curvature="0" />
    <path
       d="m -139.6436,1340.7874 h -21.48363 v -7.5591 h -21.48363 v 7.5591 h -21.48363 v 15.1181 h 7.55906 v 22.6772 h -7.55906 v 22.6771 h 7.55906 v 22.6772 h -7.55906 v 22.6772 h 21.48363 v -7.5591 h 21.48363 v 7.5591 h 21.48363 v -7.5591 h 21.48363 v 7.5591 h 21.483633 v -7.5591 h 21.483631 v 7.5591 h 21.48363 v -7.5591 h 21.48363 v 7.5591 h 21.483631 v -7.5591 h 21.48363 v 7.5591 h 21.483631 v -7.5591 h 21.48363 v 7.5591 h 21.48363 v -7.5591 h 21.483631 v 7.5591 h 21.483633 v -7.5591 h 21.48363 v 7.5591 h 21.48363 v -7.5591 h 21.48363 v 7.5591 h 21.48363 v -22.6772 h -7.55906 v -22.6772 h 7.55906 v -22.6771 h -7.55906 v -22.6772 h 7.55906 v -15.1181 h -21.48363 v -7.5591 h -21.48363 v 7.5591 H 139.6436 v -7.5591 h -21.48363 v 7.5591 H 96.676337 v -7.5591 H 75.192706 v 7.5591 h -21.48363 v -7.5591 h -21.48363 v 7.5591 H 10.741815 v -7.5591 h -21.48363 v 7.5591 h -21.483631 v -7.5591 h -21.48363 v 7.5591 h -21.48363 v -7.5591 h -21.483631 v 7.5591 h -21.483633 v -7.5591 h -21.48363 z"
       style="fill:none;stroke:#0000ff;stroke-width:0.07559055;stroke-miterlimit:4;stroke-dasharray:none;stroke-opacity:1"
       id="path849"
       inkscape:connector-curvature="0" />
    <path
       d="m -182.61086,953.16532 v -7.55906 h -21.48363 v 29.50939 h 7.55906 v 29.50935 h -7.55906 v 29.5094 h 7.55906 v 29.5094 h -7.55906 v 29.5094 h 7.55906 v 29.5094 h -7.55906 v 29.5094 h 7.55906 v 29.5094 h -7.55906 v 29.5094 h 7.55906 v 29.5093 h -7.55906 v 29.5094 h 7.55906 v 29.5094 h -7.55906 v 29.5094 h 21.48363 v -7.559 h 21.48363 v 7.559 h 21.48363 v -7.559 h 21.48363 v 7.559 h 21.483633 v -7.559 h 21.483631 v 7.559 h 21.48363 v -7.559 h 21.48363 v 7.559 h 21.483631 v -7.559 h 21.48363 v 7.559 h 21.483631 v -7.559 h 21.48363 v 7.559 h 21.48363 v -7.559 h 21.483631 v 7.559 h 21.483633 v -7.559 h 21.48363 v 7.559 h 21.48363 v -7.559 h 21.48363 v 7.559 h 21.48363 v -29.5094 h -7.55906 v -29.5094 h 7.55906 v -29.5094 h -7.55906 v -29.5093 h 7.55906 v -29.5094 h -7.55906 v -29.5094 h 7.55906 v -29.5094 h -7.55906 v -29.5094 h 7.55906 v -29.5094 h -7.55906 v -29.5094 h 7.55906 v -29.5094 h -7.55906 v -29.50935 h 7.55906 v -29.50939 h -21.48363 v 7.55906 h -21.48363 v -7.55906 H 139.6436 v 7.55906 h -21.48363 v -7.55906 H 96.676337 v 7.55906 H 75.192706 v -7.55906 h -21.48363 v 7.55906 h -21.48363 v -7.55906 H 10.741815 v 7.55906 h -21.48363 v -7.55906 h -21.483631 v 7.55906 h -21.48363 v -7.55906 h -21.48363 v 7.55906 h -21.483631 v -7.55906 h -21.483633 v 7.55906 h -21.48363 v -7.55906 h -21.48363 v 7.55906 z"
       style="fill:none;stroke:#0000ff;stroke-width:0.07559055;stroke-miterlimit:4;stroke-dasharray:none;stroke-opacity:1"
       id="path851"
       inkscape:connector-curvature="0" />
    <path
       d="m 274.48924,1804.8699 a 7.559055,7.559055 0 1 0 -15.11811,0 7.559055,7.559055 0 1 0 15.11811,0 z"
       style="fill:none;stroke:#0000ff;stroke-width:0.07559055;stroke-miterlimit:4;stroke-dasharray:none;stroke-opacity:1"
       id="path853"
       inkscape:connector-curvature="0" />
    <path
       d="m 316.06405,1812.2109 v 21.9504 h -15.11811 v 7.559 h -22.67717 v -7.559 h -22.67716 v 7.559 h -22.67717 v -7.559 h -22.67716 v -21.9504 h 7.55905 v -29.5094 h -7.55905 v -29.5094 h 7.55905 v -29.5093 h -7.55905 v -29.5094 h 7.55905 v -29.5094 h -7.55905 v -29.5094 h 7.55905 v -29.5094 h -7.55905 v -29.5094 h 7.55905 v -29.5094 h -7.55905 v -29.5094 h 7.55905 v -29.5093 h -7.55905 v -21.9504 h 22.67716 v -7.559 h 22.67717 v 7.559 h 22.67716 v -7.559 h 22.67717 v 7.559 h 15.11811 v 21.9504 h 7.55905 v 29.5093 h -7.55905 v 29.5094 h 7.55905 v 29.5094 h -7.55905 v 29.5094 h 7.55905 v 29.5094 h -7.55905 v 29.5094 h 7.55905 v 29.5094 h -7.55905 v 29.5094 h 7.55905 v 29.5093 h -7.55905 v 29.5094 h 7.55905 v 29.5094 z"
       style="fill:none;stroke:#0000ff;stroke-width:0.07559055;stroke-miterlimit:4;stroke-dasharray:none;stroke-opacity:1"
       id="path855"
       inkscape:connector-curvature="0" />
    <path
       d="m -139.6436,934.25197 h -21.48363 v 7.55905 h -21.48363 v -7.55905 h -21.48363 v -15.11811 h 7.55906 v -22.67717 h -7.55906 v -22.67716 h 7.55906 v -22.67717 h -7.55906 V 828.4252 h 21.48363 v 7.55905 h 21.48363 v -7.55905 h 21.48363 v 7.55905 h 21.48363 v -7.55905 h 21.483633 v 7.55905 h 21.483631 v -7.55905 h 21.48363 v 7.55905 h 21.48363 v -7.55905 h 21.483631 v 7.55905 h 21.48363 v -7.55905 h 21.483631 v 7.55905 h 21.48363 v -7.55905 h 21.48363 v 7.55905 h 21.483631 v -7.55905 h 21.483633 v 7.55905 h 21.48363 v -7.55905 h 21.48363 v 7.55905 h 21.48363 v -7.55905 h 21.48363 v 22.67716 h -7.55906 v 22.67717 h 7.55906 v 22.67716 h -7.55906 v 22.67717 h 7.55906 v 15.11811 h -21.48363 v 7.55905 h -21.48363 v -7.55905 H 139.6436 v 7.55905 h -21.48363 v -7.55905 H 96.676337 v 7.55905 H 75.192706 v -7.55905 h -21.48363 v 7.55905 h -21.48363 v -7.55905 H 10.741815 v 7.55905 h -21.48363 v -7.55905 h -21.483631 v 7.55905 h -21.48363 v -7.55905 h -21.48363 v 7.55905 h -21.483631 v -7.55905 h -21.483633 v 7.55905 h -21.48363 z"
       style="fill:none;stroke:#0000ff;stroke-width:0.07559055;stroke-miterlimit:4;stroke-dasharray:none;stroke-opacity:1"
       id="path857"
       inkscape:connector-curvature="0" />
    <path
       d="m 273.91198,1260.5197 a 7.559055,7.559055 0 1 0 -15.11811,0 7.559055,7.559055 0 1 0 15.11811,0 z"
       style="fill:none;stroke:#0000ff;stroke-width:0.07559055;stroke-miterlimit:4;stroke-dasharray:none;stroke-opacity:1"
       id="path859"
       inkscape:connector-curvature="0" />
    <path
       d="m 216.55118,1422.8213 v 21.9504 h 15.11811 v 7.559 h 22.67717 v -7.559 h 22.67716 v 7.559 h 22.67717 v -7.559 h 22.67716 v -21.9504 h -7.55905 v -29.5094 h 7.55905 v -29.5094 h -7.55905 v -29.5093 h 7.55905 v -29.5094 h -7.55905 v -29.5094 h 7.55905 v -29.5094 h -7.55905 v -29.5094 h 7.55905 v -29.5094 h -7.55905 v -29.5094 h 7.55905 v -29.5094 h -7.55905 v -29.5093 h 7.55905 v -21.9504 h -22.67716 v -7.559 h -22.67717 v 7.559 h -22.67716 v -7.559 h -22.67717 v 7.559 h -15.11811 v 21.9504 h -7.55905 v 29.5093 h 7.55905 v 29.5094 h -7.55905 v 29.5094 h 7.55905 v 29.5094 h -7.55905 v 29.5094 h 7.55905 v 29.5094 h -7.55905 v 29.5094 h 7.55905 v 29.5094 h -7.55905 v 29.5093 h 7.55905 v 29.5094 h -7.55905 v 29.5094 z"
       style="fill:none;stroke:#0000ff;stroke-width:0.07559055;stroke-miterlimit:4;stroke-dasharray:none;stroke-opacity:1"
       id="path861"
       inkscape:connector-curvature="0" />
    <path
       d="m -32.125984,1175.2126 a 5.6692915,5.6692915 0 1 0 -11.338583,0 5.6692915,5.6692915 0 1 0 11.338583,0 z"
       style="fill:none;stroke:#0000ff;stroke-width:0.07559055;stroke-miterlimit:4;stroke-dasharray:none;stroke-opacity:1"
       id="path863"
       inkscape:connector-curvature="0" />
    <path
       d="m 51.023622,1194.1102 v -113.3858 h 56.692908 v 113.3858 z"
       style="fill:none;stroke:#0000ff;stroke-width:0.07559055;stroke-miterlimit:4;stroke-dasharray:none;stroke-opacity:1"
       id="path865"
       inkscape:connector-curvature="0" />
    <path
       d="m -32.125984,1099.622 a 5.6692915,5.6692915 0 1 0 -11.338583,0 5.6692915,5.6692915 0 1 0 11.338583,0 z"
       style="fill:none;stroke:#0000ff;stroke-width:0.07559055;stroke-miterlimit:4;stroke-dasharray:none;stroke-opacity:1"
       id="path867"
       inkscape:connector-curvature="0" />
    <path
       d="m 43.464567,1099.622 a 5.6692915,5.6692915 0 1 0 -11.338583,0 5.6692915,5.6692915 0 1 0 11.338583,0 z"
       style="fill:none;stroke:#0000ff;stroke-width:0.07559055;stroke-miterlimit:4;stroke-dasharray:none;stroke-opacity:1"
       id="path869"
       inkscape:connector-curvature="0" />
    <path
       d="m 43.464567,1175.2126 a 5.6692915,5.6692915 0 1 0 -11.338583,0 5.6692915,5.6692915 0 1 0 11.338583,0 z"
       style="fill:none;stroke:#0000ff;stroke-width:0.07559055;stroke-miterlimit:4;stroke-dasharray:none;stroke-opacity:1"
       id="path871"
       inkscape:connector-curvature="0" />
    <path
       d="m -51.023622,1213.0078 h -45.354331 v -151.1811 h 45.354331 z"
       style="fill:none;stroke:#0000ff;stroke-width:0.07559055;stroke-miterlimit:4;stroke-dasharray:none;stroke-opacity:1"
       id="path873"
       inkscape:connector-curvature="0" />
    <g
       id="g4003"
       transform="translate(-702.51882,99.4801)">
      <path
         inkscape:connector-curvature="0"
         id="path831-5"
         style="fill:none;stroke:#0000ff;stroke-width:0.07559055;stroke-miterlimit:4;stroke-dasharray:none;stroke-opacity:1"
         d="m 564.61961,1685.5593 v -15.874 h 279.79844 v 15.874 z" />
      <path
         inkscape:connector-curvature="0"
         id="path833-4"
         style="fill:none;stroke:#0000ff;stroke-width:0.07559055;stroke-miterlimit:4;stroke-dasharray:none;stroke-opacity:1"
         d="m 660.10938,1437.8113 h -47.24409 v -49.5119 h 47.24409 z" />
      <path
         inkscape:connector-curvature="0"
         id="path835-8"
         style="fill:none;stroke:#0000ff;stroke-width:0.07559055;stroke-miterlimit:4;stroke-dasharray:none;stroke-opacity:1"
         d="m 612.86529,1570.0947 v -49.5118 h 47.24409 v 49.5118 z" />
      <path
         inkscape:connector-curvature="0"
         id="path837-8"
         style="fill:none;stroke:#0000ff;stroke-width:0.07559055;stroke-miterlimit:4;stroke-dasharray:none;stroke-opacity:1"
         d="m 559.57394,1677.6223 a 5.6692915,5.6692915 0 1 0 -11.33858,0 5.6692915,5.6692915 0 1 0 11.33858,0 z" />
      <path
         inkscape:connector-curvature="0"
         id="path839-1"
         style="fill:none;stroke:#0000ff;stroke-width:0.07559055;stroke-miterlimit:4;stroke-dasharray:none;stroke-opacity:1"
         d="m 748.92828,1437.8113 v -49.5119 h 47.2441 v 49.5119 z" />
      <path
         inkscape:connector-curvature="0"
         id="path841-6"
         style="fill:none;stroke:#0000ff;stroke-width:0.07559055;stroke-miterlimit:4;stroke-dasharray:none;stroke-opacity:1"
         d="m 748.92828,1520.5829 h 47.2441 v 49.5118 h -47.2441 z" />
      <path
         inkscape:connector-curvature="0"
         id="path843-4"
         style="fill:none;stroke:#0000ff;stroke-width:0.07559055;stroke-miterlimit:4;stroke-dasharray:none;stroke-opacity:1"
         d="m 862.69206,1677.6223 a 7.559055,5.669291 0 1 0 -15.11811,0 7.559055,5.669291 0 1 0 15.11811,0 z" />
      <path
         inkscape:connector-curvature="0"
         id="path845-7"
         style="fill:none;stroke:#0000ff;stroke-width:0.07559055;stroke-miterlimit:4;stroke-dasharray:none;stroke-opacity:1"
         d="m 901.05426,1680.9657 v -29.5094 h 7.55905 v -29.5094 h -7.55905 v -29.5094 h 7.55905 v -29.5094 h -7.55905 v -29.5094 h 7.55905 v -29.5093 h -7.55905 V 1474.4 h 7.55905 v -29.5094 h -7.55905 v -29.5094 h 7.55905 v -29.5094 h -7.55905 v -21.9503 h -13.92458 v -7.5591 h -21.48362 v 7.5591 h -21.48363 v -7.5591 H 822.6788 v 7.5591 h -21.48363 v -7.5591 h -21.48363 v 7.5591 h -21.48363 v -7.5591 h -21.48363 v 7.5591 h -21.48363 v -7.5591 h -21.48363 v 7.5591 h -21.48363 v -7.5591 h -21.48363 v 7.5591 h -21.48363 v -7.5591 H 607.8425 v 7.5591 h -21.48364 v -7.5591 h -21.48363 v 7.5591 h -21.48364 v -7.5591 h -21.48363 v 7.5591 h -13.92457 v 21.9503 h -7.55905 v 29.5094 h 7.55905 v 29.5094 h -7.55905 V 1474.4 h 7.55905 v 29.5094 h -7.55905 v 29.5093 h 7.55905 v 29.5094 h -7.55905 v 29.5094 h 7.55905 v 29.5094 h -7.55905 v 29.5094 h 7.55905 v 29.5094 h -7.55905 v 29.5094 h 7.55905 v 21.9503 h 13.92457 v 7.5591 h 21.48363 v -7.5591 h 21.48364 v 7.5591 h 21.48363 v -7.5591 h 21.48364 v 7.5591 h 21.48363 v -7.5591 h 21.48363 v 7.5591 h 21.48363 v -7.5591 h 21.48363 v 7.5591 h 21.48363 v -7.5591 h 21.48363 v 7.5591 h 21.48363 v -7.5591 h 21.48363 v 7.5591 h 21.48363 v -7.5591 h 21.48363 v 7.5591 h 21.48363 v -7.5591 h 21.48363 v 7.5591 h 21.48362 v -7.5591 h 13.92458 v -21.9503 h 7.55905 v -29.5094 z" />
    </g>
    <path
       d="m 181.41732,986.2338 a 7.5590556,7.5590556 0 1 0 -15.11811,0 7.5590556,7.5590556 0 1 0 15.11811,0 z"
       style="fill:none;stroke:#0000ff;stroke-width:0.07559055;stroke-miterlimit:4;stroke-dasharray:none;stroke-opacity:1"
       id="path875-3"
       inkscape:connector-curvature="0" />
  </g>
</svg>
