# WaveFront *.obj file (generated by Autodesk ATF)

mtllib 59ef21c8-0bb0-4215-871e-b7969b0ba7fe.mtl

g Body10

v -4.885000 -4.885000 12.000000
v -4.885000 4.885000 12.000000
v -5.275181 5.275181 11.961571
v -5.650367 5.650367 11.847759
v -5.996140 5.996140 11.662939
v -6.299214 6.299214 11.414214
v -6.547939 6.547939 11.111140
v -6.732759 6.732759 10.765367
v -6.846571 6.846571 10.390181
v -6.875369 6.875369 10.196034
v -6.885000 6.885000 10.000000
v -6.885000 -6.885000 10.000000
v -6.875369 -6.875369 10.196034
v -6.846571 -6.846571 10.390181
v -6.732759 -6.732759 10.765367
v -6.547939 -6.547939 11.111140
v -6.299214 -6.299214 11.414214
v -5.996140 -5.996140 11.662939
v -5.650367 -5.650367 11.847759
v -5.275181 -5.275181 11.961571
v 4.885000 4.885000 12.000000
v 5.275181 5.275181 11.961571
v 5.650367 5.650367 11.847759
v 5.996140 5.996140 11.662939
v 6.299214 6.299214 11.414214
v 6.547939 6.547939 11.111140
v 6.732759 6.732759 10.765367
v 6.846571 6.846571 10.390181
v 6.875369 6.875369 10.196034
v 6.885000 6.885000 10.000000
v 4.885000 -4.885000 12.000000
v 5.275181 -5.275181 11.961571
v 5.650367 -5.650367 11.847759
v 5.996140 -5.996140 11.662939
v 6.299214 -6.299214 11.414214
v 6.547939 -6.547939 11.111140
v 6.732759 -6.732759 10.765367
v 6.846571 -6.846571 10.390181
v 6.875369 -6.875369 10.196034
v 6.885000 -6.885000 10.000000
v -6.885000 -6.885000 0.000000
v 6.885000 -6.885000 0.000000
v -6.885000 6.885000 0.000000
v 1.658314 -2.922259 1.900000
v 1.656886 2.923068 1.900000
v 2.232280 2.511280 1.900000
v 2.708681 1.988127 1.900000
v 3.064963 1.376808 1.900000
v 3.285327 0.704434 1.900000
v 3.360000 0.000821 1.900000
v 3.285671 -0.702829 1.900000
v 3.065635 -1.375311 1.900000
v 2.709652 -1.986803 1.900000
v 2.233506 -2.510189 1.900000
v -3.360000 0.000000 0.000000
v -3.269431 0.774869 0.000000
v -3.002606 1.507965 0.000000
v -2.573909 2.159766 0.000000
v -2.006453 2.695134 0.000000
v -1.330828 3.085206 0.000000
v -0.583458 3.308954 0.000000
v 0.195367 3.354315 0.000000
v 0.963659 3.218845 0.000000
v 1.680000 2.909845 0.000000
v 2.305772 2.443975 0.000000
v 2.807239 1.846350 0.000000
v 3.157367 1.149188 0.000000
v 3.337281 0.390072 0.000000
v 3.337281 -0.390072 0.000000
v 3.157367 -1.149188 0.000000
v 2.807239 -1.846350 0.000000
v 2.305772 -2.443975 0.000000
v 1.680000 -2.909845 0.000000
v 0.963659 -3.218845 0.000000
v 0.195367 -3.354315 0.000000
v -0.583458 -3.308954 0.000000
v -1.330828 -3.085206 0.000000
v -2.006453 -2.695134 0.000000
v -2.573909 -2.159766 0.000000
v -3.002606 -1.507965 0.000000
v -3.269431 -0.774869 0.000000
v 1.658314 -2.922259 8.597500
v 1.656886 2.923068 8.597500
v 0.940872 3.225579 8.597500
v 0.174505 3.355465 8.597500
v -0.601202 3.305776 8.597500
v -1.344733 3.079171 8.597500
v -2.016298 2.687776 8.597500
v -2.579956 2.152539 8.597500
v -3.005542 1.502104 8.597500
v -3.270279 0.771280 8.597500
v -3.360000 -0.000821 8.597500
v -3.269902 -0.772877 8.597500
v -3.004808 -1.503572 8.597500
v -2.578905 -2.153799 8.597500
v -2.014985 -2.688761 8.597500
v -1.343229 -3.079827 8.597500
v -0.599587 -3.306070 8.597500
v 0.176144 -3.355380 8.597500
v 0.942447 -3.225119 8.597500
v 6.885000 6.885000 0.000000
vt -0.832750 -0.157080 0.000000
vt 0.144250 -0.157080 0.000000
vt -0.871768 -0.117810 0.000000
vt 0.183268 -0.117810 0.000000
vt 0.220787 -0.078540 0.000000
vt -0.909287 -0.078540 0.000000
vt 0.255364 -0.039270 0.000000
vt -0.943864 -0.039270 0.000000
vt -0.974171 -0.000000 0.000000
vt 0.285671 -0.000000 0.000000
vt -0.999044 0.039270 0.000000
vt 0.310544 0.039270 0.000000
vt 0.329026 0.078540 0.000000
vt -1.017526 0.078540 0.000000
vt 0.340407 0.117810 0.000000
vt -1.028907 0.117810 0.000000
vt -1.031787 0.137445 0.000000
vt 0.343287 0.137445 0.000000
vt -1.032750 0.157080 0.000000
vt 0.344250 0.157080 0.000000
vt -0.832750 -0.157080 0.000000
vt 0.144250 -0.157080 0.000000
vt -0.871768 -0.117810 0.000000
vt 0.183268 -0.117810 0.000000
vt 0.220787 -0.078540 0.000000
vt -0.909287 -0.078540 0.000000
vt 0.255364 -0.039270 0.000000
vt -0.943864 -0.039270 0.000000
vt -0.974171 -0.000000 0.000000
vt 0.285671 -0.000000 0.000000
vt -0.999044 0.039270 0.000000
vt 0.310544 0.039270 0.000000
vt 0.329026 0.078540 0.000000
vt -1.017526 0.078540 0.000000
vt 0.340407 0.117810 0.000000
vt -1.028907 0.117810 0.000000
vt -1.031787 0.137445 0.000000
vt 0.343287 0.137445 0.000000
vt -1.032750 0.157080 0.000000
vt 0.344250 0.157080 0.000000
vt -0.832750 -0.157080 0.000000
vt 0.144250 -0.157080 0.000000
vt -0.871768 -0.117810 0.000000
vt 0.183268 -0.117810 0.000000
vt 0.220787 -0.078540 0.000000
vt -0.909287 -0.078540 0.000000
vt 0.255364 -0.039270 0.000000
vt -0.943864 -0.039270 0.000000
vt -0.974171 -0.000000 0.000000
vt 0.285671 -0.000000 0.000000
vt -0.999044 0.039270 0.000000
vt 0.310544 0.039270 0.000000
vt 0.329026 0.078540 0.000000
vt -1.017526 0.078540 0.000000
vt 0.340407 0.117810 0.000000
vt -1.028907 0.117810 0.000000
vt -1.031787 0.137445 0.000000
vt 0.343287 0.137445 0.000000
vt -1.032750 0.157080 0.000000
vt 0.344250 0.157080 0.000000
vt 0.344250 0.157080 0.000000
vt -1.032750 0.157080 0.000000
vt 0.343287 0.137445 0.000000
vt -1.031787 0.137445 0.000000
vt 0.340407 0.117810 0.000000
vt -1.028907 0.117810 0.000000
vt -1.017526 0.078540 0.000000
vt 0.329026 0.078540 0.000000
vt -0.999044 0.039270 0.000000
vt 0.310544 0.039270 0.000000
vt 0.285671 -0.000000 0.000000
vt -0.974171 -0.000000 0.000000
vt 0.255364 -0.039270 0.000000
vt -0.943864 -0.039270 0.000000
vt -0.909287 -0.078540 0.000000
vt 0.220787 -0.078540 0.000000
vt -0.871768 -0.117810 0.000000
vt 0.183268 -0.117810 0.000000
vt 0.144250 -0.157080 0.000000
vt -0.832750 -0.157080 0.000000
vt 1.377000 1.000000 0.000000
vt 0.000000 1.000000 0.000000
vt 1.377000 0.000000 0.000000
vt 0.000000 0.000000 0.000000
vt 1.377000 1.000000 0.000000
vt 0.000000 1.000000 0.000000
vt 1.377000 0.000000 0.000000
vt 0.000000 0.000000 0.000000
vt -0.488500 -0.488500 0.000000
vt 0.488500 -0.488500 0.000000
vt -0.488500 0.488500 0.000000
vt 0.488500 0.488500 0.000000
vt -0.165689 0.292307 0.000000
vt -0.223228 0.251128 0.000000
vt -0.165831 -0.292226 0.000000
vt -0.223351 -0.251019 0.000000
vt -0.270868 0.198813 0.000000
vt -0.270965 -0.198680 0.000000
vt -0.306496 0.137681 0.000000
vt -0.306564 -0.137531 0.000000
vt -0.328533 0.070443 0.000000
vt -0.328567 -0.070283 0.000000
vt -0.336000 0.000082 0.000000
vt 0.000000 0.977384 0.000000
vt 0.859750 0.977753 0.000000
vt 0.000000 1.055575 0.000000
vt 0.000000 -1.055575 0.000000
vt 0.859750 -1.133397 0.000000
vt 0.859750 -1.055493 0.000000
vt 0.859750 -0.977589 0.000000
vt 0.859750 0.899849 0.000000
vt 0.000000 0.899194 0.000000
vt 0.859750 0.821945 0.000000
vt 0.000000 0.821003 0.000000
vt 0.859750 0.744041 0.000000
vt 0.000000 0.742812 0.000000
vt 0.859750 0.666137 0.000000
vt 0.000000 0.664621 0.000000
vt 0.859750 0.588233 0.000000
vt 0.000000 0.586431 0.000000
vt 0.859750 0.510329 0.000000
vt 0.000000 0.508240 0.000000
vt 0.859750 0.432425 0.000000
vt 0.000000 0.430049 0.000000
vt 0.859750 0.354521 0.000000
vt 0.190000 0.354521 0.000000
vt 0.000000 0.351858 0.000000
vt 0.190000 0.283633 0.000000
vt 0.000000 0.273668 0.000000
vt 0.190000 0.212746 0.000000
vt 0.000000 0.195477 0.000000
vt 0.190000 0.141858 0.000000
vt 0.000000 0.117286 0.000000
vt 0.190000 0.070970 0.000000
vt 0.000000 0.039095 0.000000
vt 0.190000 0.000082 0.000000
vt 0.000000 -0.039095 0.000000
vt 0.190000 -0.070806 0.000000
vt 0.000000 -0.117286 0.000000
vt 0.190000 -0.141694 0.000000
vt 0.000000 -0.195477 0.000000
vt 0.190000 -0.212581 0.000000
vt 0.000000 -0.273668 0.000000
vt 0.190000 -0.283469 0.000000
vt 0.000000 -0.351858 0.000000
vt 0.190000 -0.354357 0.000000
vt 0.000000 -0.430049 0.000000
vt 0.859750 -0.354357 0.000000
vt 0.859750 -0.432261 0.000000
vt 0.000000 -0.508240 0.000000
vt 0.859750 -0.510165 0.000000
vt 0.000000 -0.586431 0.000000
vt 0.859750 -0.588069 0.000000
vt 0.000000 -0.664621 0.000000
vt 0.859750 -0.665973 0.000000
vt 0.000000 -0.742812 0.000000
vt 0.859750 -0.743877 0.000000
vt 0.000000 -0.821003 0.000000
vt 0.859750 -0.821781 0.000000
vt 0.000000 -0.899194 0.000000
vt 0.859750 -0.899685 0.000000
vt 0.000000 -0.977384 0.000000
vt -0.250916 -0.292226 0.000000
vt -0.179329 -0.322512 0.000000
vt -0.250773 0.292307 0.000000
vt -0.179171 0.322558 0.000000
vt -0.102699 -0.335538 0.000000
vt -0.102535 0.335547 0.000000
vt -0.025126 -0.330607 0.000000
vt -0.024964 0.330578 0.000000
vt 0.049239 -0.307983 0.000000
vt 0.049389 0.307917 0.000000
vt 0.116546 0.268778 0.000000
vt 0.172911 0.215254 0.000000
vt 0.116414 -0.268876 0.000000
vt 0.215470 0.150210 0.000000
vt 0.241944 0.077128 0.000000
vt 0.250916 -0.000082 0.000000
vt 0.241906 -0.077288 0.000000
vt 0.215397 -0.150357 0.000000
vt 0.172806 -0.215380 0.000000
vt -0.000000 -0.000000 0.000000
vt 0.669750 -0.000000 0.000000
vt -0.000000 0.584533 0.000000
vt 0.669750 0.584533 0.000000
vt 1.377000 1.000000 0.000000
vt 0.000000 1.000000 0.000000
vt 1.377000 0.000000 0.000000
vt 0.000000 0.000000 0.000000
vt 1.377000 1.000000 0.000000
vt 0.000000 1.000000 0.000000
vt 1.377000 0.000000 0.000000
vt 0.000000 0.000000 0.000000
vt 0.326943 -0.077487 0.000000
vt 0.688500 -0.688500 0.000000
vt 0.336000 0.000000 0.000000
vt 0.688500 0.688500 0.000000
vt 0.326943 0.077487 0.000000
vt 0.300261 0.150797 0.000000
vt 0.257391 0.215977 0.000000
vt 0.200645 0.269513 0.000000
vt 0.133083 0.308521 0.000000
vt 0.058346 0.330895 0.000000
vt -0.019537 0.335432 0.000000
vt -0.688500 0.688500 0.000000
vt -0.096366 0.321884 0.000000
vt -0.168000 0.290985 0.000000
vt -0.230577 0.244398 0.000000
vt -0.280724 0.184635 0.000000
vt -0.315737 0.114919 0.000000
vt -0.333728 0.039007 0.000000
vt -0.688500 -0.688500 0.000000
vt -0.333728 -0.039007 0.000000
vt -0.315737 -0.114919 0.000000
vt -0.280724 -0.184635 0.000000
vt -0.230577 -0.244398 0.000000
vt -0.168000 -0.290985 0.000000
vt -0.096366 -0.321884 0.000000
vt -0.019537 -0.335432 0.000000
vt 0.058346 -0.330895 0.000000
vt 0.133083 -0.308521 0.000000
vt 0.200645 -0.269513 0.000000
vt 0.257391 -0.215977 0.000000
vt 0.300261 -0.150797 0.000000
vn 0.000000 -0.000000 0.100000
vn 0.000000 -0.000000 0.100000
vn -0.019509 0.000000 0.098079
vn -0.019509 0.000000 0.098079
vn -0.038268 0.000000 0.092388
vn -0.038268 0.000000 0.092388
vn -0.055557 0.000000 0.083147
vn -0.055557 0.000000 0.083147
vn -0.070711 0.000000 0.070711
vn -0.070711 0.000000 0.070711
vn -0.083147 0.000000 0.055557
vn -0.083147 0.000000 0.055557
vn -0.092388 0.000000 0.038268
vn -0.092388 0.000000 0.038268
vn -0.098079 0.000000 0.019509
vn -0.098079 0.000000 0.019509
vn -0.099518 0.000000 0.009802
vn -0.099518 0.000000 0.009802
vn -0.100000 0.000000 0.000000
vn -0.100000 0.000000 -0.000000
vn 0.000000 0.000000 0.100000
vn 0.000000 0.019509 0.098079
vn 0.000000 0.019509 0.098079
vn 0.000000 0.038268 0.092388
vn 0.000000 0.038268 0.092388
vn 0.000000 0.055557 0.083147
vn 0.000000 0.055557 0.083147
vn 0.000000 0.070711 0.070711
vn 0.000000 0.070711 0.070711
vn 0.000000 0.083147 0.055557
vn 0.000000 0.083147 0.055557
vn 0.000000 0.092388 0.038268
vn 0.000000 0.092388 0.038268
vn 0.000000 0.098079 0.019509
vn 0.000000 0.098079 0.019509
vn 0.000000 0.099518 0.009802
vn 0.000000 0.099518 0.009802
vn 0.000000 0.100000 0.000000
vn 0.000000 0.100000 0.000000
vn 0.000000 0.000000 0.100000
vn 0.019509 -0.000000 0.098079
vn 0.019509 -0.000000 0.098079
vn 0.038268 -0.000000 0.092388
vn 0.038268 -0.000000 0.092388
vn 0.055557 -0.000000 0.083147
vn 0.055557 -0.000000 0.083147
vn 0.070711 -0.000000 0.070711
vn 0.070711 -0.000000 0.070711
vn 0.083147 -0.000000 0.055557
vn 0.083147 -0.000000 0.055557
vn 0.092388 -0.000000 0.038268
vn 0.092388 -0.000000 0.038268
vn 0.098079 -0.000000 0.019509
vn 0.098079 -0.000000 0.019509
vn 0.099518 -0.000000 0.009802
vn 0.099518 -0.000000 0.009802
vn 0.100000 -0.000000 0.000000
vn 0.100000 -0.000000 0.000000
vn 0.000000 -0.100000 0.000000
vn 0.000000 -0.100000 0.000000
vn 0.000000 -0.099518 0.009802
vn 0.000000 -0.099518 0.009802
vn 0.000000 -0.098079 0.019509
vn 0.000000 -0.098079 0.019509
vn 0.000000 -0.092388 0.038268
vn 0.000000 -0.092388 0.038268
vn 0.000000 -0.083147 0.055557
vn 0.000000 -0.083147 0.055557
vn 0.000000 -0.070711 0.070711
vn 0.000000 -0.070711 0.070711
vn 0.000000 -0.055557 0.083147
vn 0.000000 -0.055557 0.083147
vn 0.000000 -0.038268 0.092388
vn 0.000000 -0.038268 0.092388
vn 0.000000 -0.019509 0.098079
vn 0.000000 -0.019509 0.098079
vn 0.000000 -0.100000 0.000000
vn 0.000000 -0.100000 0.000000
vn -0.100000 0.000000 0.000000
vn -0.100000 0.000000 0.000000
vn 0.000000 0.000000 -0.100000
vn 0.000000 0.000000 -0.100000
vn 0.000000 0.000000 -0.100000
vn 0.000000 0.000000 -0.100000
vn 0.000000 0.000000 -0.100000
vn 0.000000 0.000000 -0.100000
vn 0.000000 0.000000 -0.100000
vn 0.000000 0.000000 -0.100000
vn 0.000000 0.000000 -0.100000
vn 0.000000 0.000000 -0.100000
vn 0.000000 0.000000 -0.100000
vn 0.097304 -0.023062 0.000000
vn 0.097330 -0.022955 0.000000
vn 0.100000 -0.000000 0.000000
vn 0.100000 0.000024 0.000000
vn 0.097319 0.023002 0.000000
vn 0.089451 -0.044705 0.000000
vn 0.089363 -0.044880 0.000000
vn 0.076784 -0.064064 0.000000
vn 0.076604 -0.064279 0.000000
vn 0.060009 -0.079993 0.000000
vn 0.059716 -0.080212 0.000000
vn 0.040022 -0.091642 0.000000
vn 0.039608 -0.091822 0.000000
vn 0.017893 -0.098386 0.000000
vn 0.017365 -0.098481 0.000000
vn -0.005194 -0.099865 0.000000
vn -0.005814 -0.099831 0.000000
vn -0.028002 -0.095999 0.000000
vn -0.028680 -0.095799 0.000000
vn -0.049312 -0.086996 0.000000
vn -0.049312 -0.086996 0.000000
vn -0.050000 -0.086603 0.000000
vn -0.066437 -0.074740 0.000000
vn -0.068624 -0.072737 0.000000
vn -0.080616 -0.059170 0.000000
vn -0.083549 -0.054951 0.000000
vn -0.091219 -0.040976 0.000000
vn -0.093969 -0.034202 0.000000
vn -0.097778 -0.020965 0.000000
vn -0.099324 -0.011609 0.000000
vn -0.100000 -0.000024 0.000000
vn -0.099324 0.011609 0.000000
vn -0.097788 0.020918 0.000000
vn -0.093969 0.034202 0.000000
vn -0.091239 0.040932 0.000000
vn -0.083549 0.054951 0.000000
vn -0.080644 0.059131 0.000000
vn -0.068624 0.072737 0.000000
vn -0.066473 0.074708 0.000000
vn -0.050000 0.086603 0.000000
vn -0.049355 0.086972 0.000000
vn -0.028680 0.095799 0.000000
vn -0.049355 0.086972 0.000000
vn -0.028049 0.095986 0.000000
vn -0.005814 0.099831 0.000000
vn -0.005242 0.099862 0.000000
vn 0.017365 0.098481 0.000000
vn 0.017845 0.098395 0.000000
vn 0.039608 0.091822 0.000000
vn 0.039977 0.091662 0.000000
vn 0.059716 0.080212 0.000000
vn 0.059970 0.080023 0.000000
vn 0.076604 0.064279 0.000000
vn 0.076753 0.064101 0.000000
vn 0.089363 0.044880 0.000000
vn 0.089429 0.044749 0.000000
vn 0.097304 0.023062 0.000000
vn 0.000000 0.000000 -0.100000
vn 0.000000 0.000000 -0.100000
vn 0.000000 0.000000 -0.100000
vn 0.000000 0.000000 -0.100000
vn 0.000000 0.000000 -0.100000
vn 0.000000 0.000000 -0.100000
vn 0.000000 0.000000 -0.100000
vn 0.000000 0.000000 -0.100000
vn 0.000000 0.000000 -0.100000
vn 0.000000 0.000000 -0.100000
vn 0.000000 0.000000 -0.100000
vn 0.000000 0.000000 -0.100000
vn 0.000000 0.000000 -0.100000
vn 0.000000 0.000000 -0.100000
vn 0.000000 0.000000 -0.100000
vn 0.000000 0.000000 -0.100000
vn 0.000000 0.000000 -0.100000
vn 0.000000 0.000000 -0.100000
vn 0.000000 0.000000 -0.100000
vn -0.100000 -0.000024 0.000000
vn -0.100000 -0.000024 0.000000
vn -0.100000 -0.000024 0.000000
vn -0.100000 -0.000024 0.000000
vn 0.000000 0.100000 0.000000
vn 0.000000 0.100000 0.000000
vn 0.100000 0.000000 0.000000
vn 0.100000 0.000000 0.000000
vn 0.000000 0.000000 -0.100000
vn 0.000000 0.000000 -0.100000
vn 0.000000 0.000000 -0.100000
vn 0.000000 0.000000 -0.100000
vn 0.000000 0.000000 -0.100000
vn 0.000000 0.000000 -0.100000
vn 0.000000 0.000000 -0.100000
vn 0.000000 0.000000 -0.100000
vn 0.000000 0.000000 -0.100000
vn 0.000000 0.000000 -0.100000
vn 0.000000 0.000000 -0.100000
vn 0.000000 0.000000 -0.100000
vn 0.000000 0.000000 -0.100000
vn 0.000000 0.000000 -0.100000
vn 0.000000 0.000000 -0.100000
vn 0.000000 0.000000 -0.100000
vn 0.000000 0.000000 -0.100000
vn 0.000000 0.000000 -0.100000
vn 0.000000 0.000000 -0.100000
vn 0.000000 0.000000 -0.100000
vn 0.000000 0.000000 -0.100000
vn 0.000000 0.000000 -0.100000
vn 0.000000 0.000000 -0.100000
vn 0.000000 0.000000 -0.100000
vn 0.000000 0.000000 -0.100000
vn 0.000000 0.000000 -0.100000
vn 0.000000 0.000000 -0.100000
vn 0.000000 0.000000 -0.100000
vn 0.000000 0.000000 -0.100000
vn 0.000000 0.000000 -0.100000
vn 0.000000 0.000000 -0.100000
usemtl Steel_-_Satin
f 1/1/1 2/2/2 20/3/3
f 20/3/3 2/2/2 3/4/4
f 20/3/3 3/4/4 4/5/5
f 20/3/3 4/5/5 19/6/6
f 19/6/6 4/5/5 5/7/7
f 19/6/6 5/7/7 18/8/8
f 18/8/8 5/7/7 17/9/9
f 17/9/9 5/7/7 6/10/10
f 17/9/9 6/10/10 16/11/11
f 16/11/11 6/10/10 7/12/12
f 16/11/11 7/12/12 8/13/13
f 16/11/11 8/13/13 15/14/14
f 15/14/14 8/13/13 9/15/15
f 15/14/14 9/15/15 14/16/16
f 14/16/16 9/15/15 13/17/17
f 13/17/17 9/15/15 10/18/18
f 13/17/17 10/18/18 12/19/19
f 12/19/19 10/18/18 11/20/20
f 2/21/2 21/22/21 3/23/22
f 3/23/22 21/22/21 22/24/23
f 3/23/22 22/24/23 23/25/24
f 3/23/22 23/25/24 4/26/25
f 4/26/25 23/25/24 24/27/26
f 4/26/25 24/27/26 5/28/27
f 5/28/27 24/27/26 6/29/28
f 6/29/28 24/27/26 25/30/29
f 6/29/28 25/30/29 7/31/30
f 7/31/30 25/30/29 26/32/31
f 7/31/30 26/32/31 27/33/32
f 7/31/30 27/33/32 8/34/33
f 8/34/33 27/33/32 28/35/34
f 8/34/33 28/35/34 9/36/35
f 9/36/35 28/35/34 10/37/36
f 10/37/36 28/35/34 29/38/37
f 10/37/36 29/38/37 11/39/38
f 11/39/38 29/38/37 30/40/39
f 21/41/21 31/42/40 22/43/41
f 22/43/41 31/42/40 32/44/42
f 22/43/41 32/44/42 33/45/43
f 22/43/41 33/45/43 23/46/44
f 23/46/44 33/45/43 34/47/45
f 23/46/44 34/47/45 24/48/46
f 24/48/46 34/47/45 25/49/47
f 25/49/47 34/47/45 35/50/48
f 25/49/47 35/50/48 26/51/49
f 26/51/49 35/50/48 36/52/50
f 26/51/49 36/52/50 37/53/51
f 26/51/49 37/53/51 27/54/52
f 27/54/52 37/53/51 38/55/53
f 27/54/52 38/55/53 28/56/54
f 28/56/54 38/55/53 29/57/55
f 29/57/55 38/55/53 39/58/56
f 29/57/55 39/58/56 30/59/57
f 30/59/57 39/58/56 40/60/58
f 12/61/59 40/62/60 13/63/61
f 13/63/61 40/62/60 39/64/62
f 13/63/61 39/64/62 14/65/63
f 14/65/63 39/64/62 38/66/64
f 14/65/63 38/66/64 37/67/65
f 14/65/63 37/67/65 15/68/66
f 15/68/66 37/67/65 36/69/67
f 15/68/66 36/69/67 16/70/68
f 16/70/68 36/69/67 17/71/69
f 17/71/69 36/69/67 35/72/70
f 17/71/69 35/72/70 18/73/71
f 18/73/71 35/72/70 34/74/72
f 18/73/71 34/74/72 33/75/73
f 18/73/71 33/75/73 19/76/74
f 19/76/74 33/75/73 32/77/75
f 19/76/74 32/77/75 20/78/76
f 20/78/76 32/77/75 1/79/1
f 1/79/1 32/77/75 31/80/40
f 40/81/60 12/82/59 42/83/77
f 42/83/77 12/82/59 41/84/78
f 12/85/19 11/86/20 41/87/79
f 41/87/79 11/86/20 43/88/80
f 1/89/1 31/90/40 2/91/2
f 2/91/2 31/90/40 21/92/21
f 45/93/81 46/94/82 44/95/83
f 44/95/83 46/94/82 54/96/84
f 54/96/84 46/94/82 47/97/85
f 54/96/84 47/97/85 53/98/86
f 53/98/86 47/97/85 48/99/87
f 53/98/86 48/99/87 52/100/88
f 52/100/88 48/99/87 49/101/89
f 52/100/88 49/101/89 51/102/90
f 51/102/90 49/101/89 50/103/91
f 56/104/92 91/105/93 55/106/94
f 55/107/94 91/108/93 92/109/95
f 55/107/94 92/109/95 93/110/96
f 91/105/93 56/104/92 90/111/97
f 90/111/97 56/104/92 57/112/98
f 90/111/97 57/112/98 89/113/99
f 89/113/99 57/112/98 58/114/100
f 89/113/99 58/114/100 88/115/101
f 88/115/101 58/114/100 59/116/102
f 88/115/101 59/116/102 87/117/103
f 87/117/103 59/116/102 60/118/104
f 87/117/103 60/118/104 86/119/105
f 86/119/105 60/118/104 61/120/106
f 86/119/105 61/120/106 85/121/107
f 85/121/107 61/120/106 62/122/108
f 85/121/107 62/122/108 84/123/109
f 84/123/109 62/122/108 63/124/110
f 84/123/109 63/124/110 83/125/111
f 83/125/111 63/124/110 45/126/112
f 45/126/112 63/124/110 64/127/113
f 45/126/112 64/127/113 46/128/114
f 46/128/114 64/127/113 65/129/115
f 46/128/114 65/129/115 47/130/116
f 47/130/116 65/129/115 66/131/117
f 47/130/116 66/131/117 48/132/118
f 48/132/118 66/131/117 67/133/119
f 48/132/118 67/133/119 49/134/120
f 49/134/120 67/133/119 68/135/121
f 49/134/120 68/135/121 50/136/122
f 50/136/122 68/135/121 69/137/123
f 50/136/122 69/137/123 51/138/124
f 51/138/124 69/137/123 70/139/125
f 51/138/124 70/139/125 52/140/126
f 52/140/126 70/139/125 71/141/127
f 52/140/126 71/141/127 53/142/128
f 53/142/128 71/141/127 72/143/129
f 53/142/128 72/143/129 54/144/130
f 54/144/130 72/143/129 73/145/131
f 54/144/130 73/145/131 44/146/132
f 44/146/132 73/145/131 74/147/133
f 44/146/132 74/147/133 82/148/134
f 82/148/134 74/147/133 100/149/135
f 100/149/135 74/147/133 75/150/136
f 100/149/135 75/150/136 99/151/137
f 99/151/137 75/150/136 76/152/138
f 99/151/137 76/152/138 98/153/139
f 98/153/139 76/152/138 77/154/140
f 98/153/139 77/154/140 97/155/141
f 97/155/141 77/154/140 78/156/142
f 97/155/141 78/156/142 96/157/143
f 96/157/143 78/156/142 79/158/144
f 96/157/143 79/158/144 95/159/145
f 95/159/145 79/158/144 80/160/146
f 95/159/145 80/160/146 94/161/147
f 94/161/147 80/160/146 81/162/148
f 94/161/147 81/162/148 93/110/96
f 93/110/96 81/162/148 55/107/94
f 82/163/149 100/164/150 83/165/151
f 83/165/151 100/164/150 84/166/152
f 84/166/152 100/164/150 99/167/153
f 84/166/152 99/167/153 85/168/154
f 85/168/154 99/167/153 98/169/155
f 85/168/154 98/169/155 86/170/156
f 86/170/156 98/169/155 97/171/157
f 86/170/156 97/171/157 87/172/158
f 87/172/158 97/171/157 88/173/159
f 88/173/159 97/171/157 89/174/160
f 89/174/160 97/171/157 96/175/161
f 89/174/160 96/175/161 90/176/162
f 90/176/162 96/175/161 91/177/163
f 91/177/163 96/175/161 92/178/164
f 92/178/164 96/175/161 93/179/165
f 93/179/165 96/175/161 94/180/166
f 94/180/166 96/175/161 95/181/167
f 44/182/168 82/183/169 45/184/170
f 45/184/170 82/183/169 83/185/171
f 11/186/38 30/187/39 43/188/172
f 43/188/172 30/187/39 101/189/173
f 30/190/57 40/191/58 101/192/174
f 101/192/174 40/191/58 42/193/175
f 81/194/176 41/195/177 55/196/178
f 55/196/178 41/195/177 43/197/179
f 55/196/178 43/197/179 56/198/180
f 56/198/180 43/197/179 57/199/181
f 57/199/181 43/197/179 58/200/182
f 58/200/182 43/197/179 59/201/183
f 59/201/183 43/197/179 60/202/184
f 60/202/184 43/197/179 61/203/185
f 61/203/185 43/197/179 62/204/186
f 62/204/186 43/197/179 101/205/187
f 62/204/186 101/205/187 63/206/188
f 63/206/188 101/205/187 64/207/189
f 64/207/189 101/205/187 65/208/190
f 65/208/190 101/205/187 66/209/191
f 66/209/191 101/205/187 67/210/192
f 67/210/192 101/205/187 68/211/193
f 68/211/193 101/205/187 42/212/194
f 68/211/193 42/212/194 69/213/195
f 69/213/195 42/212/194 70/214/196
f 70/214/196 42/212/194 71/215/197
f 71/215/197 42/212/194 72/216/198
f 72/216/198 42/212/194 73/217/199
f 73/217/199 42/212/194 74/218/200
f 74/218/200 42/212/194 75/219/201
f 75/219/201 42/212/194 41/195/177
f 75/219/201 41/195/177 76/220/202
f 76/220/202 41/195/177 77/221/203
f 77/221/203 41/195/177 78/222/204
f 78/222/204 41/195/177 79/223/205
f 79/223/205 41/195/177 80/224/206
f 80/224/206 41/195/177 81/194/176

# 101 vertices
# 224 texture params
# 206 normals
# 198 facets

# 1 groups
