# WaveFront *.obj file (generated by Autodesk ATF)

mtllib 8fc201e8-8077-43fd-afdd-9be9d8ef2cba.mtl

g Body10

v -10.655000 -10.655000 12.000000
v -10.655000 10.655000 12.000000
v -11.045181 11.045181 11.961571
v -11.420367 11.420367 11.847759
v -11.766140 11.766140 11.662939
v -12.069214 12.069214 11.414214
v -12.317939 12.317939 11.111140
v -12.502759 12.502759 10.765367
v -12.616571 12.616571 10.390181
v -12.645369 12.645369 10.196034
v -12.655000 12.655000 10.000000
v -12.655000 -12.655000 10.000000
v -12.645369 -12.645369 10.196034
v -12.616571 -12.616571 10.390181
v -12.502759 -12.502759 10.765367
v -12.317939 -12.317939 11.111140
v -12.069214 -12.069214 11.414214
v -11.766140 -11.766140 11.662939
v -11.420367 -11.420367 11.847759
v -11.045181 -11.045181 11.961571
v 10.655000 10.655000 12.000000
v 11.045181 11.045181 11.961571
v 11.420367 11.420367 11.847759
v 11.766140 11.766140 11.662939
v 12.069214 12.069214 11.414214
v 12.317939 12.317939 11.111140
v 12.502759 12.502759 10.765367
v 12.616571 12.616571 10.390181
v 12.645369 12.645369 10.196034
v 12.655000 12.655000 10.000000
v 10.655000 -10.655000 12.000000
v 11.045181 -11.045181 11.961571
v 11.420367 -11.420367 11.847759
v 11.766140 -11.766140 11.662939
v 12.069214 -12.069214 11.414214
v 12.317939 -12.317939 11.111140
v 12.502759 -12.502759 10.765367
v 12.616571 -12.616571 10.390181
v 12.645369 -12.645369 10.196034
v 12.655000 -12.655000 10.000000
v -12.655000 -12.655000 0.000000
v 12.655000 -12.655000 0.000000
v -12.655000 12.655000 0.000000
v 1.673120 -2.948350 1.900000
v 1.671680 2.949167 1.900000
v 2.310981 2.480215 1.900000
v 2.823871 1.875594 1.900000
v 3.182294 1.168378 1.900000
v 3.366644 0.397251 1.900000
v 3.366838 -0.395606 1.900000
v 3.182864 -1.166823 1.900000
v 2.824787 -1.874215 1.900000
v 2.312192 -2.479086 1.900000
v -3.390000 0.000000 0.000000
v -3.274489 0.877397 0.000000
v -2.935826 1.695000 0.000000
v -2.397092 2.397092 0.000000
v -1.695000 2.935826 0.000000
v -0.877397 3.274489 0.000000
v 0.000000 3.390000 0.000000
v 0.877397 3.274489 0.000000
v 1.695000 2.935826 0.000000
v 2.397092 2.397092 0.000000
v 2.935826 1.695000 0.000000
v 3.274489 0.877397 0.000000
v 3.390000 0.000000 0.000000
v 3.274489 -0.877397 0.000000
v 2.935826 -1.695000 0.000000
v 2.397092 -2.397092 0.000000
v 1.695000 -2.935826 0.000000
v 0.877397 -3.274489 0.000000
v 0.000000 -3.390000 0.000000
v -0.877397 -3.274489 0.000000
v -1.695000 -2.935826 0.000000
v -2.397092 -2.397092 0.000000
v -2.935826 -1.695000 0.000000
v -3.274489 -0.877397 0.000000
v 1.673120 -2.948350 8.597500
v 1.671680 2.949167 8.597500
v 0.854568 3.280520 8.597500
v -0.020357 3.389939 8.597500
v -0.893905 3.270021 8.597500
v -1.706978 2.928878 8.597500
v -2.404570 2.389590 8.597500
v -2.939488 1.688641 8.597500
v -3.275543 0.873452 8.597500
v -3.390000 -0.000828 8.597500
v -3.275116 -0.875052 8.597500
v -2.938663 -1.690077 8.597500
v -2.403403 -2.390765 8.597500
v -1.705547 -2.929711 8.597500
v -0.892307 -3.270457 8.597500
v -0.018701 -3.389948 8.597500
v 0.856171 -3.280102 8.597500
v 12.655000 12.655000 0.000000
vt -1.698250 -0.157080 0.000000
vt 0.432750 -0.157080 0.000000
vt -1.737268 -0.117810 0.000000
vt 0.471768 -0.117810 0.000000
vt 0.509287 -0.078540 0.000000
vt -1.774787 -0.078540 0.000000
vt 0.543864 -0.039270 0.000000
vt -1.809364 -0.039270 0.000000
vt -1.839671 -0.000000 0.000000
vt 0.574171 -0.000000 0.000000
vt -1.864544 0.039270 0.000000
vt 0.599044 0.039270 0.000000
vt 0.617526 0.078540 0.000000
vt -1.883026 0.078540 0.000000
vt 0.628907 0.117810 0.000000
vt -1.894407 0.117810 0.000000
vt -1.897287 0.137445 0.000000
vt 0.631787 0.137445 0.000000
vt -1.898250 0.157080 0.000000
vt 0.632750 0.157080 0.000000
vt -1.698250 -0.157080 0.000000
vt 0.432750 -0.157080 0.000000
vt -1.737268 -0.117810 0.000000
vt 0.471768 -0.117810 0.000000
vt 0.509287 -0.078540 0.000000
vt -1.774787 -0.078540 0.000000
vt 0.543864 -0.039270 0.000000
vt -1.809364 -0.039270 0.000000
vt -1.839671 0.000000 0.000000
vt 0.574171 0.000000 0.000000
vt -1.864544 0.039270 0.000000
vt 0.599044 0.039270 0.000000
vt 0.617526 0.078540 0.000000
vt -1.883026 0.078540 0.000000
vt 0.628907 0.117810 0.000000
vt -1.894407 0.117810 0.000000
vt -1.897287 0.137445 0.000000
vt 0.631787 0.137445 0.000000
vt -1.898250 0.157080 0.000000
vt 0.632750 0.157080 0.000000
vt -1.698250 -0.157080 0.000000
vt 0.432750 -0.157080 0.000000
vt -1.737268 -0.117810 0.000000
vt 0.471768 -0.117810 0.000000
vt 0.509287 -0.078540 0.000000
vt -1.774787 -0.078540 0.000000
vt 0.543864 -0.039270 0.000000
vt -1.809364 -0.039270 0.000000
vt -1.839671 -0.000000 0.000000
vt 0.574171 -0.000000 0.000000
vt -1.864544 0.039270 0.000000
vt 0.599044 0.039270 0.000000
vt 0.617526 0.078540 0.000000
vt -1.883026 0.078540 0.000000
vt 0.628907 0.117810 0.000000
vt -1.894407 0.117810 0.000000
vt -1.897287 0.137445 0.000000
vt 0.631787 0.137445 0.000000
vt -1.898250 0.157080 0.000000
vt 0.632750 0.157080 0.000000
vt 0.632750 0.157080 0.000000
vt -1.898250 0.157080 0.000000
vt 0.631787 0.137445 0.000000
vt -1.897287 0.137445 0.000000
vt 0.628907 0.117810 0.000000
vt -1.894407 0.117810 0.000000
vt -1.883026 0.078540 0.000000
vt 0.617526 0.078540 0.000000
vt -1.864544 0.039270 0.000000
vt 0.599044 0.039270 0.000000
vt 0.574171 0.000000 0.000000
vt -1.839671 0.000000 0.000000
vt 0.543864 -0.039270 0.000000
vt -1.809364 -0.039270 0.000000
vt -1.774787 -0.078540 0.000000
vt 0.509287 -0.078540 0.000000
vt -1.737268 -0.117810 0.000000
vt 0.471768 -0.117810 0.000000
vt 0.432750 -0.157080 0.000000
vt -1.698250 -0.157080 0.000000
vt 2.531000 1.000000 0.000000
vt 0.000000 1.000000 0.000000
vt 2.531000 0.000000 0.000000
vt 0.000000 0.000000 0.000000
vt 2.531000 1.000000 0.000000
vt 0.000000 1.000000 0.000000
vt 2.531000 0.000000 0.000000
vt 0.000000 0.000000 0.000000
vt -1.065500 -1.065500 0.000000
vt 1.065500 -1.065500 0.000000
vt -1.065500 1.065500 0.000000
vt 1.065500 1.065500 0.000000
vt -0.167168 0.294917 0.000000
vt -0.231098 0.248022 0.000000
vt -0.167312 -0.294835 0.000000
vt -0.231219 -0.247909 0.000000
vt -0.282387 0.187559 0.000000
vt -0.282479 -0.187421 0.000000
vt -0.318229 0.116838 0.000000
vt -0.318286 -0.116682 0.000000
vt -0.336664 0.039725 0.000000
vt -0.336684 -0.039561 0.000000
vt 0.000000 0.976250 0.000000
vt 0.859750 0.976658 0.000000
vt 0.000000 1.065000 0.000000
vt 0.000000 -1.065000 0.000000
vt 0.859750 -1.153342 0.000000
vt 0.859750 -1.064917 0.000000
vt 0.859750 -0.976493 0.000000
vt 0.859750 0.888234 0.000000
vt 0.000000 0.887500 0.000000
vt 0.859750 0.799809 0.000000
vt 0.000000 0.798750 0.000000
vt 0.859750 0.711385 0.000000
vt 0.000000 0.710000 0.000000
vt 0.859750 0.622960 0.000000
vt 0.000000 0.621250 0.000000
vt 0.859750 0.534536 0.000000
vt 0.000000 0.532500 0.000000
vt 0.859750 0.446111 0.000000
vt 0.000000 0.443750 0.000000
vt 0.859750 0.357687 0.000000
vt 0.190000 0.357687 0.000000
vt 0.000000 0.355000 0.000000
vt 0.190000 0.278219 0.000000
vt 0.000000 0.266250 0.000000
vt 0.190000 0.198752 0.000000
vt 0.000000 0.177500 0.000000
vt 0.190000 0.119284 0.000000
vt 0.000000 0.088750 0.000000
vt 0.190000 0.039817 0.000000
vt 0.000000 0.000000 0.000000
vt 0.190000 -0.039651 0.000000
vt 0.000000 -0.088750 0.000000
vt 0.190000 -0.119118 0.000000
vt 0.000000 -0.177500 0.000000
vt 0.190000 -0.198586 0.000000
vt 0.000000 -0.266250 0.000000
vt 0.190000 -0.278054 0.000000
vt 0.000000 -0.355000 0.000000
vt 0.190000 -0.357521 0.000000
vt 0.000000 -0.443750 0.000000
vt 0.859750 -0.357521 0.000000
vt 0.859750 -0.445946 0.000000
vt 0.000000 -0.532500 0.000000
vt 0.859750 -0.534370 0.000000
vt 0.000000 -0.621250 0.000000
vt 0.859750 -0.622795 0.000000
vt 0.000000 -0.710000 0.000000
vt 0.859750 -0.711219 0.000000
vt 0.000000 -0.798750 0.000000
vt 0.859750 -0.799644 0.000000
vt 0.000000 -0.887500 0.000000
vt 0.859750 -0.888068 0.000000
vt 0.000000 -0.976250 0.000000
vt -0.253156 -0.294835 0.000000
vt -0.171461 -0.328010 0.000000
vt -0.253012 0.294917 0.000000
vt -0.171301 0.328052 0.000000
vt -0.083974 -0.338995 0.000000
vt -0.083808 0.338994 0.000000
vt 0.003387 -0.327046 0.000000
vt 0.003546 0.327002 0.000000
vt 0.084711 -0.292971 0.000000
vt 0.084854 0.292888 0.000000
vt 0.154496 -0.239076 0.000000
vt 0.154613 0.238959 0.000000
vt 0.208105 0.168864 0.000000
vt 0.241710 0.087345 0.000000
vt 0.253156 -0.000083 0.000000
vt 0.241668 -0.087505 0.000000
vt 0.208022 -0.169008 0.000000
vt -0.000000 -0.000000 0.000000
vt 0.669750 -0.000000 0.000000
vt -0.000000 0.589752 0.000000
vt 0.669750 0.589752 0.000000
vt 2.531000 1.000000 0.000000
vt 0.000000 1.000000 0.000000
vt 2.531000 0.000000 0.000000
vt 0.000000 0.000000 0.000000
vt 2.531000 1.000000 0.000000
vt 0.000000 1.000000 0.000000
vt 2.531000 0.000000 0.000000
vt 0.000000 0.000000 0.000000
vt 0.327449 -0.087740 0.000000
vt 1.265500 -1.265500 0.000000
vt 0.339000 0.000000 0.000000
vt 1.265500 1.265500 0.000000
vt 0.327449 0.087740 0.000000
vt 0.293583 0.169500 0.000000
vt 0.239709 0.239709 0.000000
vt 0.169500 0.293583 0.000000
vt 0.087740 0.327449 0.000000
vt -0.000000 0.339000 0.000000
vt -1.265500 1.265500 0.000000
vt -0.087740 0.327449 0.000000
vt -0.169500 0.293583 0.000000
vt -0.239709 0.239709 0.000000
vt -0.293583 0.169500 0.000000
vt -0.327449 0.087740 0.000000
vt -0.339000 0.000000 0.000000
vt -1.265500 -1.265500 0.000000
vt -0.327449 -0.087740 0.000000
vt -0.293583 -0.169500 0.000000
vt -0.239709 -0.239709 0.000000
vt -0.169500 -0.293583 0.000000
vt -0.087740 -0.327449 0.000000
vt -0.000000 -0.339000 0.000000
vt 0.087740 -0.327449 0.000000
vt 0.169500 -0.293583 0.000000
vt 0.239709 -0.239709 0.000000
vt 0.293583 -0.169500 0.000000
vn 0.000000 -0.000000 0.100000
vn -0.000000 0.000000 0.100000
vn -0.019509 0.000000 0.098079
vn -0.019509 0.000000 0.098079
vn -0.038268 0.000000 0.092388
vn -0.038268 0.000000 0.092388
vn -0.055557 0.000000 0.083147
vn -0.055557 0.000000 0.083147
vn -0.070711 0.000000 0.070711
vn -0.070711 0.000000 0.070711
vn -0.083147 0.000000 0.055557
vn -0.083147 0.000000 0.055557
vn -0.092388 0.000000 0.038268
vn -0.092388 0.000000 0.038268
vn -0.098079 0.000000 0.019509
vn -0.098079 0.000000 0.019509
vn -0.099518 0.000000 0.009802
vn -0.099518 0.000000 0.009802
vn -0.100000 0.000000 -0.000000
vn -0.100000 0.000000 0.000000
vn 0.000000 0.000000 0.100000
vn 0.000000 0.019509 0.098079
vn 0.000000 0.019509 0.098079
vn 0.000000 0.038268 0.092388
vn 0.000000 0.038268 0.092388
vn 0.000000 0.055557 0.083147
vn 0.000000 0.055557 0.083147
vn 0.000000 0.070711 0.070711
vn 0.000000 0.070711 0.070711
vn 0.000000 0.083147 0.055557
vn 0.000000 0.083147 0.055557
vn 0.000000 0.092388 0.038268
vn 0.000000 0.092388 0.038268
vn 0.000000 0.098079 0.019509
vn 0.000000 0.098079 0.019509
vn 0.000000 0.099518 0.009802
vn 0.000000 0.099518 0.009802
vn 0.000000 0.100000 0.000000
vn 0.000000 0.100000 0.000000
vn 0.000000 0.000000 0.100000
vn 0.019509 -0.000000 0.098079
vn 0.019509 -0.000000 0.098079
vn 0.038268 -0.000000 0.092388
vn 0.038268 -0.000000 0.092388
vn 0.055557 -0.000000 0.083147
vn 0.055557 -0.000000 0.083147
vn 0.070711 -0.000000 0.070711
vn 0.070711 -0.000000 0.070711
vn 0.083147 -0.000000 0.055557
vn 0.083147 -0.000000 0.055557
vn 0.092388 -0.000000 0.038268
vn 0.092388 -0.000000 0.038268
vn 0.098079 -0.000000 0.019509
vn 0.098079 -0.000000 0.019509
vn 0.099518 -0.000000 0.009802
vn 0.099518 -0.000000 0.009802
vn 0.100000 0.000000 0.000000
vn 0.100000 0.000000 0.000000
vn 0.000000 -0.100000 0.000000
vn 0.000000 -0.100000 0.000000
vn 0.000000 -0.099518 0.009802
vn 0.000000 -0.099518 0.009802
vn 0.000000 -0.098079 0.019509
vn 0.000000 -0.098079 0.019509
vn 0.000000 -0.092388 0.038268
vn 0.000000 -0.092388 0.038268
vn 0.000000 -0.083147 0.055557
vn 0.000000 -0.083147 0.055557
vn 0.000000 -0.070711 0.070711
vn 0.000000 -0.070711 0.070711
vn 0.000000 -0.055557 0.083147
vn 0.000000 -0.055557 0.083147
vn 0.000000 -0.038268 0.092388
vn 0.000000 -0.038268 0.092388
vn 0.000000 -0.019509 0.098079
vn 0.000000 -0.019509 0.098079
vn 0.000000 -0.100000 0.000000
vn 0.000000 -0.100000 0.000000
vn -0.100000 0.000000 0.000000
vn -0.100000 0.000000 0.000000
vn 0.000000 0.000000 -0.100000
vn 0.000000 0.000000 -0.100000
vn 0.000000 0.000000 -0.100000
vn 0.000000 0.000000 -0.100000
vn 0.000000 0.000000 -0.100000
vn 0.000000 0.000000 -0.100000
vn 0.000000 0.000000 -0.100000
vn 0.000000 0.000000 -0.100000
vn 0.000000 0.000000 -0.100000
vn 0.000000 0.000000 -0.100000
vn 0.096593 -0.025882 0.000000
vn 0.096624 -0.025766 0.000000
vn 0.100000 -0.000000 0.000000
vn 0.100000 0.000024 0.000000
vn 0.096611 0.025813 0.000000
vn 0.086711 -0.049812 0.000000
vn 0.086603 -0.050000 0.000000
vn 0.070931 -0.070489 0.000000
vn 0.070711 -0.070711 0.000000
vn 0.050353 -0.086398 0.000000
vn 0.050000 -0.086603 0.000000
vn 0.026369 -0.096461 0.000000
vn 0.025882 -0.096593 0.000000
vn 0.000600 -0.099998 0.000000
vn -0.000000 -0.100000 0.000000
vn -0.025209 -0.096771 0.000000
vn -0.025882 -0.096593 0.000000
vn -0.049312 -0.086996 0.000000
vn -0.049312 -0.086996 0.000000
vn -0.050000 -0.086603 0.000000
vn -0.068171 -0.073163 0.000000
vn -0.070711 -0.070711 0.000000
vn -0.083300 -0.055327 0.000000
vn -0.086603 -0.050000 0.000000
vn -0.093873 -0.034465 0.000000
vn -0.096593 -0.025882 0.000000
vn -0.099311 -0.011718 0.000000
vn -0.100000 0.000000 0.000000
vn -0.099317 0.011670 0.000000
vn -0.096593 0.025882 0.000000
vn -0.093890 0.034420 0.000000
vn -0.086603 0.050000 0.000000
vn -0.083327 0.055287 0.000000
vn -0.070711 0.070711 0.000000
vn -0.068206 0.073129 0.000000
vn -0.050000 0.086603 0.000000
vn -0.049355 0.086972 0.000000
vn -0.025882 0.096593 0.000000
vn -0.049355 0.086972 0.000000
vn -0.025256 0.096758 0.000000
vn -0.000000 0.100000 0.000000
vn 0.000552 0.099998 0.000000
vn 0.025882 0.096593 0.000000
vn 0.026322 0.096474 0.000000
vn 0.050000 0.086603 0.000000
vn 0.050311 0.086422 0.000000
vn 0.070711 0.070711 0.000000
vn 0.070897 0.070524 0.000000
vn 0.086603 0.050000 0.000000
vn 0.086686 0.049855 0.000000
vn 0.096593 0.025882 0.000000
vn 0.000000 0.000000 -0.100000
vn 0.000000 0.000000 -0.100000
vn 0.000000 0.000000 -0.100000
vn 0.000000 0.000000 -0.100000
vn 0.000000 0.000000 -0.100000
vn 0.000000 0.000000 -0.100000
vn 0.000000 0.000000 -0.100000
vn 0.000000 0.000000 -0.100000
vn 0.000000 0.000000 -0.100000
vn 0.000000 0.000000 -0.100000
vn 0.000000 0.000000 -0.100000
vn 0.000000 0.000000 -0.100000
vn 0.000000 0.000000 -0.100000
vn 0.000000 0.000000 -0.100000
vn 0.000000 0.000000 -0.100000
vn 0.000000 0.000000 -0.100000
vn 0.000000 0.000000 -0.100000
vn -0.100000 -0.000024 0.000000
vn -0.100000 -0.000024 0.000000
vn -0.100000 -0.000024 0.000000
vn -0.100000 -0.000024 0.000000
vn 0.000000 0.100000 0.000000
vn 0.000000 0.100000 0.000000
vn 0.100000 0.000000 0.000000
vn 0.100000 0.000000 0.000000
vn 0.000000 0.000000 -0.100000
vn 0.000000 0.000000 -0.100000
vn 0.000000 0.000000 -0.100000
vn 0.000000 0.000000 -0.100000
vn 0.000000 0.000000 -0.100000
vn 0.000000 0.000000 -0.100000
vn 0.000000 0.000000 -0.100000
vn 0.000000 0.000000 -0.100000
vn 0.000000 0.000000 -0.100000
vn 0.000000 0.000000 -0.100000
vn 0.000000 0.000000 -0.100000
vn 0.000000 0.000000 -0.100000
vn 0.000000 0.000000 -0.100000
vn 0.000000 0.000000 -0.100000
vn 0.000000 0.000000 -0.100000
vn 0.000000 0.000000 -0.100000
vn 0.000000 0.000000 -0.100000
vn 0.000000 0.000000 -0.100000
vn 0.000000 0.000000 -0.100000
vn 0.000000 0.000000 -0.100000
vn 0.000000 0.000000 -0.100000
vn 0.000000 0.000000 -0.100000
vn 0.000000 0.000000 -0.100000
vn 0.000000 0.000000 -0.100000
vn 0.000000 0.000000 -0.100000
vn 0.000000 0.000000 -0.100000
vn 0.000000 0.000000 -0.100000
vn 0.000000 0.000000 -0.100000
usemtl Steel_-_Satin
f 1/1/1 2/2/2 20/3/3
f 20/3/3 2/2/2 3/4/4
f 20/3/3 3/4/4 4/5/5
f 20/3/3 4/5/5 19/6/6
f 19/6/6 4/5/5 5/7/7
f 19/6/6 5/7/7 18/8/8
f 18/8/8 5/7/7 17/9/9
f 17/9/9 5/7/7 6/10/10
f 17/9/9 6/10/10 16/11/11
f 16/11/11 6/10/10 7/12/12
f 16/11/11 7/12/12 8/13/13
f 16/11/11 8/13/13 15/14/14
f 15/14/14 8/13/13 9/15/15
f 15/14/14 9/15/15 14/16/16
f 14/16/16 9/15/15 13/17/17
f 13/17/17 9/15/15 10/18/18
f 13/17/17 10/18/18 12/19/19
f 12/19/19 10/18/18 11/20/20
f 2/21/2 21/22/21 3/23/22
f 3/23/22 21/22/21 22/24/23
f 3/23/22 22/24/23 23/25/24
f 3/23/22 23/25/24 4/26/25
f 4/26/25 23/25/24 24/27/26
f 4/26/25 24/27/26 5/28/27
f 5/28/27 24/27/26 6/29/28
f 6/29/28 24/27/26 25/30/29
f 6/29/28 25/30/29 7/31/30
f 7/31/30 25/30/29 26/32/31
f 7/31/30 26/32/31 27/33/32
f 7/31/30 27/33/32 8/34/33
f 8/34/33 27/33/32 28/35/34
f 8/34/33 28/35/34 9/36/35
f 9/36/35 28/35/34 10/37/36
f 10/37/36 28/35/34 29/38/37
f 10/37/36 29/38/37 11/39/38
f 11/39/38 29/38/37 30/40/39
f 21/41/21 31/42/40 22/43/41
f 22/43/41 31/42/40 32/44/42
f 22/43/41 32/44/42 33/45/43
f 22/43/41 33/45/43 23/46/44
f 23/46/44 33/45/43 34/47/45
f 23/46/44 34/47/45 24/48/46
f 24/48/46 34/47/45 25/49/47
f 25/49/47 34/47/45 35/50/48
f 25/49/47 35/50/48 26/51/49
f 26/51/49 35/50/48 36/52/50
f 26/51/49 36/52/50 37/53/51
f 26/51/49 37/53/51 27/54/52
f 27/54/52 37/53/51 38/55/53
f 27/54/52 38/55/53 28/56/54
f 28/56/54 38/55/53 29/57/55
f 29/57/55 38/55/53 39/58/56
f 29/57/55 39/58/56 30/59/57
f 30/59/57 39/58/56 40/60/58
f 12/61/59 40/62/60 13/63/61
f 13/63/61 40/62/60 39/64/62
f 13/63/61 39/64/62 14/65/63
f 14/65/63 39/64/62 38/66/64
f 14/65/63 38/66/64 37/67/65
f 14/65/63 37/67/65 15/68/66
f 15/68/66 37/67/65 36/69/67
f 15/68/66 36/69/67 16/70/68
f 16/70/68 36/69/67 17/71/69
f 17/71/69 36/69/67 35/72/70
f 17/71/69 35/72/70 18/73/71
f 18/73/71 35/72/70 34/74/72
f 18/73/71 34/74/72 33/75/73
f 18/73/71 33/75/73 19/76/74
f 19/76/74 33/75/73 32/77/75
f 19/76/74 32/77/75 20/78/76
f 20/78/76 32/77/75 1/79/1
f 1/79/1 32/77/75 31/80/40
f 40/81/60 12/82/59 42/83/77
f 42/83/77 12/82/59 41/84/78
f 12/85/19 11/86/20 41/87/79
f 41/87/79 11/86/20 43/88/80
f 1/89/1 31/90/40 2/91/2
f 2/91/2 31/90/40 21/92/21
f 45/93/81 46/94/82 44/95/83
f 44/95/83 46/94/82 53/96/84
f 53/96/84 46/94/82 47/97/85
f 53/96/84 47/97/85 52/98/86
f 52/98/86 47/97/85 48/99/87
f 52/98/86 48/99/87 51/100/88
f 51/100/88 48/99/87 49/101/89
f 51/100/88 49/101/89 50/102/90
f 55/103/91 86/104/92 54/105/93
f 54/106/93 86/107/92 87/108/94
f 54/106/93 87/108/94 88/109/95
f 86/104/92 55/103/91 85/110/96
f 85/110/96 55/103/91 56/111/97
f 85/110/96 56/111/97 84/112/98
f 84/112/98 56/111/97 57/113/99
f 84/112/98 57/113/99 83/114/100
f 83/114/100 57/113/99 58/115/101
f 83/114/100 58/115/101 82/116/102
f 82/116/102 58/115/101 59/117/103
f 82/116/102 59/117/103 81/118/104
f 81/118/104 59/117/103 60/119/105
f 81/118/104 60/119/105 80/120/106
f 80/120/106 60/119/105 61/121/107
f 80/120/106 61/121/107 79/122/108
f 79/122/108 61/121/107 45/123/109
f 45/123/109 61/121/107 62/124/110
f 45/123/109 62/124/110 46/125/111
f 46/125/111 62/124/110 63/126/112
f 46/125/111 63/126/112 47/127/113
f 47/127/113 63/126/112 64/128/114
f 47/127/113 64/128/114 48/129/115
f 48/129/115 64/128/114 65/130/116
f 48/129/115 65/130/116 49/131/117
f 49/131/117 65/130/116 66/132/118
f 49/131/117 66/132/118 50/133/119
f 50/133/119 66/132/118 67/134/120
f 50/133/119 67/134/120 51/135/121
f 51/135/121 67/134/120 68/136/122
f 51/135/121 68/136/122 52/137/123
f 52/137/123 68/136/122 69/138/124
f 52/137/123 69/138/124 53/139/125
f 53/139/125 69/138/124 70/140/126
f 53/139/125 70/140/126 44/141/127
f 44/141/127 70/140/126 71/142/128
f 44/141/127 71/142/128 78/143/129
f 78/143/129 71/142/128 94/144/130
f 94/144/130 71/142/128 72/145/131
f 94/144/130 72/145/131 93/146/132
f 93/146/132 72/145/131 73/147/133
f 93/146/132 73/147/133 92/148/134
f 92/148/134 73/147/133 74/149/135
f 92/148/134 74/149/135 91/150/136
f 91/150/136 74/149/135 75/151/137
f 91/150/136 75/151/137 90/152/138
f 90/152/138 75/151/137 76/153/139
f 90/152/138 76/153/139 89/154/140
f 89/154/140 76/153/139 77/155/141
f 89/154/140 77/155/141 88/109/95
f 88/109/95 77/155/141 54/106/93
f 78/156/142 94/157/143 79/158/144
f 79/158/144 94/157/143 80/159/145
f 80/159/145 94/157/143 93/160/146
f 80/159/145 93/160/146 81/161/147
f 81/161/147 93/160/146 92/162/148
f 81/161/147 92/162/148 82/163/149
f 82/163/149 92/162/148 91/164/150
f 82/163/149 91/164/150 83/165/151
f 83/165/151 91/164/150 90/166/152
f 83/165/151 90/166/152 84/167/153
f 84/167/153 90/166/152 85/168/154
f 85/168/154 90/166/152 86/169/155
f 86/169/155 90/166/152 87/170/156
f 87/170/156 90/166/152 88/171/157
f 88/171/157 90/166/152 89/172/158
f 44/173/159 78/174/160 45/175/161
f 45/175/161 78/174/160 79/176/162
f 11/177/38 30/178/39 43/179/163
f 43/179/163 30/178/39 95/180/164
f 30/181/57 40/182/58 95/183/165
f 95/183/165 40/182/58 42/184/166
f 77/185/167 41/186/168 54/187/169
f 54/187/169 41/186/168 43/188/170
f 54/187/169 43/188/170 55/189/171
f 55/189/171 43/188/170 56/190/172
f 56/190/172 43/188/170 57/191/173
f 57/191/173 43/188/170 58/192/174
f 58/192/174 43/188/170 59/193/175
f 59/193/175 43/188/170 60/194/176
f 60/194/176 43/188/170 95/195/177
f 60/194/176 95/195/177 61/196/178
f 61/196/178 95/195/177 62/197/179
f 62/197/179 95/195/177 63/198/180
f 63/198/180 95/195/177 64/199/181
f 64/199/181 95/195/177 65/200/182
f 65/200/182 95/195/177 66/201/183
f 66/201/183 95/195/177 42/202/184
f 66/201/183 42/202/184 67/203/185
f 67/203/185 42/202/184 68/204/186
f 68/204/186 42/202/184 69/205/187
f 69/205/187 42/202/184 70/206/188
f 70/206/188 42/202/184 71/207/189
f 71/207/189 42/202/184 72/208/190
f 72/208/190 42/202/184 41/186/168
f 72/208/190 41/186/168 73/209/191
f 73/209/191 41/186/168 74/210/192
f 74/210/192 41/186/168 75/211/193
f 75/211/193 41/186/168 76/212/194
f 76/212/194 41/186/168 77/185/167

# 95 vertices
# 212 texture params
# 194 normals
# 186 facets

# 1 groups
